<?xml version="1.0" encoding="UTF-8"?>
<svg width="11.1578351px" height="9.945786px" viewBox="0 0 11.1578351 9.945786" version="1.1" xmlns="http://www.w3.org/2000/svg" xmlns:xlink="http://www.w3.org/1999/xlink">
    <title>75F00539-9262-4C99-A8FD-63DC0395AB68</title>
    <g id="Mentor" stroke="none" stroke-width="1" fill="none" fill-rule="evenodd">
        <g id="Mentor---Sign-In-Error" transform="translate(-20.000000, -162.500000)" fill="#DB4850">
            <g id="ic-alert" transform="translate(20.000000, 162.500000)">
                <path d="M5.57876022,0.540544647 C5.42047545,0.540544647 5.25448339,0.670890517 5.1233882,0.898112665 L0.667364927,8.61617248 C0.536234055,8.84343031 0.506296966,9.05245471 0.585260944,9.18940172 C0.664581741,9.32656283 0.860475207,9.40524135 1.12273695,9.40524135 L10.0347835,9.40524135 C10.2973307,9.40524135 10.4929387,9.32656283 10.5722238,9.18940172 C10.6515089,9.05245471 10.6216075,8.84343031 10.4901555,8.61617248 L6.03445338,0.898112665 C5.90332251,0.670890517 5.737045,0.540544647 5.57876022,0.540544647 M10.0347835,9.945786 L1.12273695,9.945786 C0.655304455,9.945786 0.298057574,9.77315711 0.117221857,9.45969189 C-0.0635424958,9.14622666 -0.0345331356,8.75069313 0.19932584,8.34577527 L4.65502798,0.627858182 C4.88888695,0.222940323 5.21683902,0 5.57876022,0 C5.94096689,0 6.26891895,0.222940323 6.50277793,0.627858182 L10.9585157,8.34577527 C11.1923747,8.75069313 11.2213841,9.14640507 11.040584,9.4598703 C10.8594629,9.77315711 10.5025014,9.945786 10.0347835,9.945786" id="Fill-3"></path>
                <path d="M5.11959312,2.89605197 L5.21510114,6.79846859 L6.00741462,6.79846859 L6.19843066,2.89605197 L5.11959312,2.89605197 Z M6.05299439,7.95447261 C5.94237775,8.04792426 5.81093916,8.09459514 5.6589008,8.09459514 C5.50410099,8.09459514 5.37263066,8.04792426 5.2650294,7.95447261 C5.15692029,7.86124072 5.10311966,7.7475989 5.10311966,7.61349222 C5.10311966,7.48191274 5.15692029,7.36816104 5.2650294,7.27231954 C5.37263066,7.17897777 5.50410099,7.13241676 5.6589008,7.13241676 C5.81093916,7.13241676 5.94237775,7.17897777 6.05299439,7.27231954 C6.16113524,7.36816104 6.21490413,7.48191274 6.21490413,7.61349222 C6.21490413,7.7475989 6.16113524,7.86124072 6.05299439,7.95447261 L6.05299439,7.95447261 Z" id="Fill-6"></path>
            </g>
        </g>
    </g>
</svg>