<?xml version="1.0" encoding="UTF-8"?>
<svg width="15.1098404px" height="9.00001468px" viewBox="0 0 15.1098404 9.00001468" version="1.1" xmlns="http://www.w3.org/2000/svg" xmlns:xlink="http://www.w3.org/1999/xlink">
    <title>1AD164D6-A3BA-416D-AE99-95F70CE533F8</title>
    <g id="Mentor" stroke="none" stroke-width="1" fill="none" fill-rule="evenodd">
        <g id="Mentor---Sign-In-Error" transform="translate(-325.499992, -306.499987)" fill="#808080">
            <g id="ic-eye-open" transform="translate(325.499992, 306.499987)">
                <path d="M7.5876278,8.38727395 C7.92564714,8.35615634 8.31038564,8.34068302 8.68858431,8.2827222 C11.1171259,7.91067865 12.9951678,6.67965223 14.3474162,4.63409665 C14.4097796,4.5397607 14.4153791,4.47534554 14.3517761,4.37476897 C12.5766189,1.56751579 9.21792568,0.120546813 5.96587872,0.793379694 C3.73156575,1.25565576 1.99603221,2.46607959 0.7468396,4.37579482 C0.687938405,4.46585637 0.680287234,4.52787788 0.742907155,4.62217108 C2.35764623,7.05515803 4.63957597,8.27451535 7.5876278,8.38727395 L7.5876278,8.38727395 Z M15.1098404,4.5904978 C14.2950975,5.9972447 13.190807,7.11410197 11.767048,7.90418157 C10.2373694,8.75307688 8.59441934,9.12477847 6.85251695,8.96303527 C3.8986092,8.6887472 1.6514303,7.25618294 0.0801191079,4.74719721 C-0.0274247285,4.57553741 -0.0259714334,4.42858363 0.0800763639,4.25615444 C1.3638916,2.16806861 3.18683656,0.809451428 5.57105264,0.234630477 C9.25434354,-0.653418308 13.1651179,1.03821717 15.0498279,4.31373057 C15.0691482,4.34728459 15.0898362,4.38011196 15.1098404,4.41332403 L15.1098404,4.5904978 Z" id="Fill-1"></path>
                <path d="M9.74899114,4.50576642 C9.75261431,3.29453046 8.77223854,2.30881169 7.55668544,2.30146232 C6.347031,2.294236 5.35861936,3.27418433 5.34908746,4.49020762 C5.33955555,5.70477761 6.33074554,6.70160981 7.54852134,6.70212297 C8.76022749,6.70267841 9.74534784,5.71943879 9.74899114,4.50576642 M10.3812559,4.49593531 C10.3844557,6.05540642 9.10675288,7.33503275 7.54732451,7.3340929 C5.9934956,7.33310927 4.71963971,6.06096314 4.71689957,4.50747618 C4.71412574,2.94680824 5.99024705,1.66884893 7.55057305,1.66970338 C9.1048294,1.67051594 10.3780014,2.94167896 10.3812559,4.49593531" id="Fill-4"></path>
            </g>
        </g>
    </g>
</svg>