<?xml version="1.0" encoding="UTF-8"?>
<svg width="15.9597719px" height="11.9652295px" viewBox="0 0 15.9597719 11.9652295" version="1.1" xmlns="http://www.w3.org/2000/svg" xmlns:xlink="http://www.w3.org/1999/xlink">
    <title>10DD4EAF-3608-4828-B338-1D9189881256</title>
    <g id="Mentor" stroke="none" stroke-width="1" fill="none" fill-rule="evenodd">
        <g id="Mentor---Sign-Up" transform="translate(-329.000000, -684.500000)" fill="#808080">
            <g id="ic-eye--copy" transform="translate(329.000000, 684.500000)">
                <path d="M0,5.88902398 C0.154048309,5.70799983 0.299439614,5.51870514 0.463536232,5.34726553 C1.58245411,4.17779693 2.81994203,3.15781625 4.24857971,2.38440563 C5.23285024,1.85161336 6.2675942,1.46823171 7.39114976,1.35893703 C8.33708213,1.26703365 9.25356522,1.40577761 10.1480966,1.71163268 C10.3380097,1.77656022 10.4245797,1.95665683 10.3657585,2.1331979 C10.3075556,2.30788389 10.1367343,2.38401915 9.9373913,2.33880176 C9.45808696,2.23004814 8.9817971,2.09424138 8.49630918,2.02962302 C7.56591304,1.90579693 6.66743961,2.09145877 5.79625121,2.41431867 C4.49051208,2.8982607 3.34508213,3.65180659 2.29495652,4.55213509 C1.80699517,4.97045394 1.35304348,5.42857954 0.884483092,5.86946843 C0.843516908,5.90796118 0.808115942,5.95248292 0.743033816,6.0240578 C1.14403865,6.44531384 1.5185314,6.88558437 1.94257005,7.27136215 C2.40950725,7.69632833 2.92398068,8.06881142 3.41294686,8.47012543 C3.49294686,8.53574862 3.5737971,8.62262785 3.60788406,8.71654089 C3.65542029,8.8474008 3.60038647,8.97424138 3.48173913,9.05671481 C3.35188406,9.1469177 3.21429952,9.14204814 3.09024155,9.04859886 C2.68815459,8.74614476 2.27725604,8.45381625 1.89263768,8.13033799 C1.255343,7.59437664 0.683903382,6.99163268 0.177623188,6.32898534 C0.115169082,6.24720756 0.0590531401,6.16040563 0,6.07599983 C0,6.01370031 0,5.9513235 0,5.88902398" id="Fill-1"></path>
                <path d="M6.85860483,7.61873993 C7.44457585,8.08985104 8.60353237,8.18530997 9.39703961,7.37889452 C10.1898512,6.57302012 10.0697353,5.42148389 9.61261449,4.86480756 C8.69504928,5.78237278 7.77617005,6.70117471 6.85860483,7.61873993 M5.09775459,9.37441142 C5.96144541,9.7369235 6.86965797,9.94623751 7.81806377,9.96903944 C8.9332715,9.9957834 9.97133913,9.6918607 10.9619478,9.20722302 C12.558856,8.42592833 13.9052522,7.31311674 15.1248077,6.03520369 C15.1411942,6.01796698 15.1504696,5.99408292 15.1656966,5.96911674 C14.0860444,4.8321892 12.9025082,3.83787036 11.5440541,3.05989935 C11.4523053,3.00741625 11.4009043,3.02588968 11.3326531,3.09530031 C10.9833585,3.45077857 10.6299671,3.80231481 10.2761894,4.15330997 C10.2111072,4.21785104 10.1372908,4.2736578 10.0729816,4.32884621 C10.9205179,5.48625683 10.7302957,6.86782205 9.99205411,7.7150491 C9.61949372,8.14264331 9.16036329,8.43473993 8.60871111,8.56366746 C7.78451787,8.75628582 7.02695266,8.58894282 6.368943,8.1063921 C5.93593816,8.53831481 5.5179285,8.95524234 5.09775459,9.37441142 M11.9086531,2.48281722 C12.3079575,2.74538727 12.6815227,2.97788968 13.0413295,3.23017954 C14.0358029,3.92737761 14.9363633,4.73255635 15.7536,5.6307206 C16.0264502,5.93062398 16.0292329,6.03133896 15.7574647,6.32869162 C14.4790106,7.72749355 13.0397836,8.92208292 11.3344309,9.77108775 C10.1549913,10.3581409 8.91649855,10.6988559 7.58440193,10.6257351 C6.5783343,10.5704694 5.61802512,10.3281506 4.69729082,9.92544524 C4.59557101,9.8809235 4.53674976,9.88942592 4.45821836,9.96888485 C3.85949372,10.574566 3.25566763,11.1753003 2.65284638,11.7768849 C2.60523285,11.8244211 2.55715556,11.8737351 2.50150338,11.9103728 C2.36569662,11.9997254 2.20214106,11.9773873 2.08944541,11.8618317 C1.97814106,11.7477448 1.96152271,11.5815612 2.05497198,11.448537 C2.09331014,11.3938124 2.14316522,11.3466626 2.19077874,11.2990491 C3.39479807,10.0943341 4.59928116,8.89000563 5.80368696,7.68559983 C7.50378357,5.98550321 9.20388019,4.28540659 10.9038995,2.58530997 C11.6970203,1.7921892 12.4901411,0.999068428 13.2832618,0.205870361 C13.2906048,0.198527365 13.2979478,0.19118437 13.3052908,0.183841375 C13.5169237,-0.027327707 13.7013488,-0.056622393 13.8575614,0.0961892012 C14.0175614,0.252633646 13.9886531,0.441851037 13.7705275,0.66013123 C13.1978512,1.23319403 12.6252522,1.80633413 12.0511845,2.37792833 C12.0110686,2.41788968 11.9592039,2.44610224 11.9086531,2.48281722" id="Fill-3"></path>
                <path d="M7.95749565,3.31664138 C8.10165024,3.33210031 8.2461913,3.34400369 8.38972754,3.36386843 C8.60398841,3.39347229 8.73276135,3.54257374 8.71158261,3.72854476 C8.68901256,3.92603268 8.53187246,4.05109548 8.30895459,4.01716311 C7.93508019,3.96035152 7.57612367,3.994052 7.22613333,4.13712447 C6.37937005,4.48332737 5.88244251,5.34400369 6.00858744,6.24881529 C6.05009469,6.54663171 5.89233623,6.75153993 5.64924444,6.71575249 C5.49233623,6.69264138 5.38907053,6.58473799 5.36000773,6.41345297 C5.0870029,4.80634186 6.32286763,3.33696988 7.95749565,3.31664138" id="Fill-6"></path>
            </g>
        </g>
    </g>
</svg>