<?xml version="1.0" encoding="UTF-8"?>
<svg width="24px" height="24px" viewBox="0 0 24 24" version="1.1" xmlns="http://www.w3.org/2000/svg" xmlns:xlink="http://www.w3.org/1999/xlink">
    <title>EF325A59-DFEE-4CEF-946E-EE699EBA7673@0.5x</title>
    <g id="Mentor" stroke="none" stroke-width="1" fill="none" fill-rule="evenodd">
        <g id="My-Profile-Screen" transform="translate(-104.500000, -765.000000)">
            <g id="Navigations-2" transform="translate(0.000000, 754.000000)">
                <g id="ic-myaacount" transform="translate(104.500000, 11.000000)">
                    <rect id="Rectangle" fill="#000000" fill-rule="nonzero" opacity="0" x="0" y="0" width="24" height="24"></rect>
                    <g id="Group-6" transform="translate(4.000000, 3.999984)" fill="#1B2339">
                        <path d="M1.08186899,3.95260244 L13.8848702,3.95260244 C14.0514951,2.50044532 13.0134958,1.89833357 11.9884987,2.08989434 C11.9884987,2.22120832 11.9909478,2.35416984 11.9880089,2.48699777 C11.9808398,2.81316762 11.754636,3.04524915 11.4485039,3.04346802 C11.141125,3.04164236 10.9238269,2.81031781 10.9202646,2.47951702 C10.9187952,2.34308229 10.920042,2.2065585 10.920042,2.07243925 L4.04491607,2.07243925 C4.04491607,2.2163102 4.04625191,2.34864833 4.0446489,2.48094193 C4.0407304,2.8109412 3.82240812,3.04204311 3.51485111,3.04346802 C3.21018844,3.04484839 2.98291597,2.81040686 2.97686012,2.48566193 C2.97427747,2.34864833 2.97641483,2.21150115 2.97641483,2.07791623 C1.75001623,1.91249357 0.924862186,2.66551175 1.08186899,3.95260244 M7.48275957,11.1904114 C7.47831563,13.2429882 9.14554447,14.9272714 11.1908186,14.9364381 C13.2725169,14.9456616 14.9583586,13.2786999 14.9648781,11.204616 C14.9712718,9.16009878 13.2941132,7.47421258 11.2475477,7.4679159 C9.17190523,7.46156655 7.4872213,9.12732595 7.48275957,11.1904114 M7.19787636,13.8695905 C6.07874645,11.8825149 6.11802041,9.98369433 7.50432017,8.15643076 C9.37219355,6.13676038 11.517033,5.91643432 13.8882098,7.16091142 L13.8882098,5.0409633 L1.06939493,5.0409633 C1.06939493,5.11011576 1.06939493,5.1699618 1.06939493,5.22980784 C1.06939493,7.59114392 1.06939493,9.95243546 1.06957918,12.313727 C1.06971277,13.2579497 1.67970603,13.8691453 2.62263744,13.869457 C4.09211607,13.8699913 5.5615947,13.8695905 7.03107333,13.8695905 C7.08548692,13.8695905 7.13985598,13.8695905 7.19787636,13.8695905 M2.97677106,0.995210464 C2.97677106,0.83602177 2.97450012,0.698295719 2.97721634,0.560703253 C2.98362842,0.2340436 3.20978768,-0.000798686339 3.51431677,-1.77635684e-15 C3.81737642,0.00080433268 4.04090852,0.237739449 4.04500512,0.564310046 C4.0466972,0.701501757 4.04527229,0.838737997 4.04527229,0.984568199 L10.920799,0.984568199 C10.920799,0.833082902 10.9187507,0.690280624 10.9211997,0.547522875 C10.9266767,0.233331147 11.1526579,0.000937917599 11.451042,-1.77635684e-15 C11.7482685,-0.000932271257 11.978747,0.230525864 11.9882315,0.544138724 C11.9925062,0.687297228 11.988944,0.830633845 11.988944,0.994765181 C12.1534761,0.994765181 12.302067,0.992627822 12.4506135,0.995121408 C13.6742958,1.01542632 14.6625125,1.82250186 14.9113367,3.01479179 C14.9506552,3.20328011 14.9621435,3.40045145 14.9626333,3.59370429 C14.9666854,5.08807425 14.9634348,6.58248873 14.9686001,8.07690321 C14.9688673,8.16253114 15.0025307,8.26338775 15.0545397,8.33133795 C17.2444864,11.1955767 15.5429707,15.4022994 11.9730029,15.9411364 C10.6334133,16.1432949 9.42647355,15.8222013 8.34073987,15.0195786 C8.27207722,14.9688608 8.1701074,14.9400065 8.08354437,14.9397839 C6.23579778,14.9352865 4.38800666,14.9387152 2.54021555,14.9355091 C1.31319354,14.9333718 0.298259863,14.1053234 0.0507715379,12.9056863 C0.0162621007,12.738438 0.00294813714,12.5640651 0.00277002392,12.3929429 C0,9.4374656 -0.00119299532,6.48198834 0.00161228796,3.52651108 C0.00290360884,2.1224 1.09322371,1.02139311 2.49862611,0.995611219 C2.64828575,0.992850464 2.79803444,0.995210464 2.97677106,0.995210464" id="Fill-1"></path>
                        <path d="M10.6895323,10.1399798 C10.6895323,9.79595409 10.6880184,9.45192839 10.6899776,9.1079027 C10.6918478,8.77131324 10.9184523,8.53255246 11.2289927,8.53542077 C11.5313399,8.53825208 11.7562524,8.77607776 11.7575437,9.10233666 C11.7598592,9.673902 11.7621302,10.2454673 11.7551392,10.8169436 C11.7536698,10.9394855 11.7919196,11.0223527 11.878349,11.1051753 C12.1309581,11.3471867 12.3763981,11.5967233 12.6228178,11.8451022 C12.8732895,12.0975777 12.8871378,12.4197845 12.6598653,12.6424706 C12.436823,12.86106 12.1190691,12.8466329 11.8732728,12.6031076 C11.5418486,12.2747558 11.2143429,11.9424411 10.8815384,11.6155143 C10.7460387,11.4824637 10.6848568,11.3281731 10.6879738,11.1387497 C10.6934508,10.8059006 10.6894878,10.4729179 10.6895323,10.1399798" id="Fill-4"></path>
                    </g>
                </g>
            </g>
        </g>
    </g>
</svg>