<?xml version="1.0" encoding="UTF-8"?>
<svg width="14.0053417px" height="14.0000094px" viewBox="0 0 14.0053417 14.0000094" version="1.1" xmlns="http://www.w3.org/2000/svg" xmlns:xlink="http://www.w3.org/1999/xlink">
    <title>060D9CA2-F888-4660-B8DC-F43350254C7E</title>
    <g id="Mentor" stroke="none" stroke-width="1" fill="none" fill-rule="evenodd">
        <g id="My-Profile-Screens-Edit-General-Information-1" transform="translate(-326.499993, -764.000000)" fill="#808080">
            <g id="ic-calendar" transform="translate(326.499993, 764.000000)">
                <path d="M3.25272813,1.99159771 C2.93766746,1.99159771 2.63708899,1.98178988 2.33747043,1.99451919 C2.07132367,2.00587122 1.8329727,2.11271389 1.61920389,2.27013988 C1.03499152,2.70051551 0.950769444,3.30814145 1.01562628,3.97482301 L13.001746,3.97482301 C13.001746,3.79294006 13.0050431,3.6214075 13.0009948,3.45008361 C12.9934407,3.12872089 12.8937348,2.83786677 12.7001659,2.5801923 C12.3078947,2.05799876 11.4659661,1.8064594 10.7524574,2.00303321 C10.7524574,2.14092703 10.7536678,2.2812415 10.752207,2.42155598 C10.7490351,2.73553152 10.5331378,2.96453376 10.2462068,2.95990113 C9.96432582,2.95535197 9.75602435,2.72993898 9.75293593,2.42431052 C9.75147519,2.28011465 9.75268552,2.13587705 9.75268552,1.98688161 L4.25229138,1.98688161 C4.25229138,2.14848114 4.25504592,2.29902079 4.25170708,2.44943524 C4.24527983,2.74074845 4.02596021,2.96194616 3.74954654,2.95990113 C3.4736337,2.95785609 3.25836241,2.73519764 3.25318722,2.44330013 C3.25055789,2.29359519 3.25272813,2.14376504 3.25272813,1.99159771 L3.25272813,1.99159771 Z M1.00252136,4.98945275 C1.00252136,5.05443479 1.00252136,5.10526853 1.00252136,5.156144 C1.00252136,7.24896651 1.00172839,9.34178902 1.00285525,11.4345698 C1.00335607,12.3509126 1.6495038,12.9969351 2.56643093,12.9972273 C5.52384434,12.9982289 8.4812995,12.9982289 11.4387547,12.9972273 C12.3563495,12.9969351 13.0015791,12.3521647 13.0022051,11.4346533 C13.0035407,9.34183076 13.0026225,7.24904998 13.0026225,5.15622747 C13.0026225,5.10201317 13.0026225,5.04779886 13.0026225,4.98945275 L1.00252136,4.98945275 Z M3.25272813,0.978136565 C3.25272813,0.806562263 3.25072483,0.661364746 3.25314549,0.516292435 C3.25815374,0.221306504 3.46862545,0.00269638734 3.7473763,8.8817842e-16 C4.03159449,-0.00272921693 4.24740834,0.219553617 4.25204097,0.52234407 C4.25425294,0.667082498 4.25241659,0.811862661 4.25241659,0.9661585 L9.75264379,0.9661585 C9.75264379,0.832104339 9.75210122,0.69421052 9.75272726,0.5563167 C9.7543132,0.22489575 9.95819072,-0.000976329399 10.25422,8.8817842e-16 C10.5485799,0.000985235223 10.7508715,0.228234583 10.7524157,0.560406771 C10.753,0.690120449 10.7524992,0.819834126 10.7524992,0.976008058 C10.8296262,0.976008058 10.8997835,0.971876252 10.9693564,0.976717561 C11.3574958,1.00359517 11.7567368,0.983937788 12.1313956,1.0702049 C13.2142628,1.31949054 13.9972609,2.32381163 13.9998903,3.43731257 C14.0062758,6.13951391 14.0082374,8.84175699 13.9992225,11.5439583 C13.9947568,12.8814115 12.8810889,13.9909893 11.5422168,13.9943282 C8.51669113,14.001924 5.49112378,14.0018405 2.46563989,13.9944534 C1.11954747,13.9911563 0.00850892366,12.8770293 0.00504488401,11.5311873 C-0.00192493071,8.83937807 -0.00125716403,6.14748537 0.00450232358,3.45567615 C0.00738206739,2.10144533 1.08828764,1.02321082 2.47064814,0.979305156 C2.72469163,0.971208485 2.9791942,0.978136565 3.25272813,0.978136565 L3.25272813,0.978136565 Z" id="Fill-1"></path>
            </g>
        </g>
    </g>
</svg>