<?xml version="1.0" encoding="UTF-8"?>
<svg width="10.4999935px" height="5.90069435px" viewBox="0 0 10.4999935 5.90069435" version="1.1" xmlns="http://www.w3.org/2000/svg" xmlns:xlink="http://www.w3.org/1999/xlink">
    <title>5A35FD75-145F-4685-AA5D-C001819FCBE4</title>
    <g id="Mentor" stroke="none" stroke-width="1" fill="none" fill-rule="evenodd">
        <g id="My-Profile-Screens-Edit-General-Information-2" transform="translate(-330.750000, -605.750004)" fill="#808080" fill-rule="nonzero" stroke="#979797" stroke-width="0.5">
            <path d="M338.586404,608.425935 L333.961109,603.813433 C333.809566,603.662398 333.564216,603.662652 333.412927,603.814214 C333.261756,603.965756 333.262147,604.211244 333.413709,604.362395 L337.763692,608.700368 L333.413552,613.03832 C333.26201,613.189492 333.261619,613.434823 333.412771,613.586385 C333.488611,613.662361 333.587966,613.700349 333.687321,613.700349 C333.786422,613.700349 333.885386,613.662615 333.961089,613.587166 L338.586404,608.974781 C338.659392,608.902164 338.700349,608.803336 338.700349,608.700368 C338.700349,608.597399 338.659275,608.498689 338.586404,608.425935 Z" id="Path-Copy-3" transform="translate(336.000000, 608.700349) rotate(-270.000000) translate(-336.000000, -608.700349) "></path>
        </g>
    </g>
</svg>