<?xml version="1.0" encoding="UTF-8"?>
<svg width="24px" height="24px" viewBox="0 0 24 24" version="1.1" xmlns="http://www.w3.org/2000/svg" xmlns:xlink="http://www.w3.org/1999/xlink">
    <title>284B3A7E-6807-418A-A634-BDD21841DF32@0.5x</title>
    <g id="Mentor" stroke="none" stroke-width="1" fill="none" fill-rule="evenodd">
        <g id="My-Profile-Screen" transform="translate(-175.500000, -764.500000)">
            <g id="Navigations-2" transform="translate(0.000000, 754.000000)">
                <g id="ic-wallet" transform="translate(175.500000, 10.500000)">
                    <rect id="Rectangle" fill="#000000" fill-rule="nonzero" opacity="0" x="0" y="0" width="24" height="24"></rect>
                    <g id="Group-3" transform="translate(2.500000, 4.999985)" fill="#1B2339">
                        <path d="M8.33723043,4.98525388 C8.3278861,5.77419013 8.95187449,6.4227074 9.72491521,6.42758271 C10.5269538,6.43266115 11.147946,5.83005301 11.1586107,5.03624146 C11.1695801,4.22297946 10.5750975,3.61295679 9.75685862,3.59782303 C8.98981047,3.58365417 8.34637163,4.21246708 8.33723043,4.98525388 M13.0975097,10.4068989 C12.8877192,8.97421915 11.5555419,7.50426358 9.622483,7.5753618 C7.69465494,7.64625687 6.55713431,9.18949438 6.40869139,10.4068989 C6.47938333,10.4068989 6.54712977,10.4068989 6.61482543,10.4068989 C7.00835404,10.4068989 7.40193344,10.4101491 7.79541126,10.4055785 C7.9999202,10.4032425 8.17746259,10.4508275 8.34124241,10.5845937 C8.42346241,10.6516799 8.54575134,10.702312 8.65072277,10.703734 C9.38679242,10.7135862 10.123116,10.7116563 10.8592364,10.7044957 C10.9483631,10.7036324 11.0593271,10.6729078 11.1215888,10.6147089 C11.3211209,10.4281776 11.5545769,10.4000938 11.8097687,10.404766 C12.2335141,10.4125868 12.6575134,10.4068989 13.0975097,10.4068989 M18.3548671,11.5656982 C18.302356,11.5595533 18.2592908,11.550209 18.2162764,11.550209 C16.1152226,11.5494472 14.0141689,11.5489394 11.9131151,11.5521896 C11.8419661,11.5522912 11.7626916,11.5776834 11.7011408,11.6145529 C11.4265494,11.7791452 11.1306792,11.8544586 10.8126163,11.8541539 C10.101685,11.8534429 9.3907536,11.8535444 8.67982225,11.8540523 C8.37501406,11.8542554 8.09229709,11.7789421 7.82476467,11.6304484 C7.74102113,11.5839806 7.63640519,11.5529513 7.54123515,11.5527482 C5.47197243,11.5484315 3.40265893,11.5493964 1.33334542,11.5498535 C1.27275959,11.5498535 1.21217376,11.5556937 1.14254829,11.5592994 C1.14254829,11.7322712 1.14254829,11.884269 1.14254829,12.0362668 C1.14254829,12.6266359 1.37092591,12.8568455 1.9567244,12.8568455 C7.15537499,12.8568455 12.3540764,12.8569434 17.5527269,12.85608 C17.6473891,12.8560292 17.7439811,12.854201 17.836358,12.8362233 C18.1175515,12.7814777 18.331811,12.5570613 18.3515662,12.2748521 C18.3678172,12.0419547 18.3548671,11.8070767 18.3548671,11.5656982 M7.9082035,6.80425089 C6.75433028,5.56460275 7.14801125,3.92152304 8.03485989,3.11242537 C8.9952444,2.23624146 10.4640319,2.22471339 11.4386869,3.08627138 C12.3232502,3.86814859 12.7737082,5.52306108 11.5919543,6.80897384 C11.6435513,6.83649901 11.6923043,6.8632624 11.7417684,6.88875619 C13.1106121,7.59567557 13.9466763,8.70374123 14.2304598,10.2188949 C14.2595593,10.3740922 14.3122227,10.4110633 14.4591929,10.4099703 C15.2841861,10.4035979 16.1092809,10.4071021 16.9343248,10.4064419 C16.9957232,10.4063911 17.0571724,10.3999415 17.1369421,10.3954216 L17.1369421,10.1955341 C17.1369421,7.4343842 17.1369421,4.67323429 17.1367516,1.91208439 C17.1367008,1.3938292 16.8847592,1.14290329 16.3650313,1.14290329 C11.9541489,1.14275093 7.54326653,1.14275093 3.13243493,1.14290329 C2.61478915,1.14295407 2.36447266,1.3947941 2.36427498,1.91538538 C2.36427498,4.67018723 2.36427498,7.42498908 2.36427498,10.1797909 C2.36427498,10.2478929 2.36427498,10.3159948 2.36427498,10.3888197 C2.41449533,10.3966913 2.44476285,10.4055278 2.4749796,10.4055278 C3.35080802,10.4064927 4.22663644,10.404766 5.10246486,10.408778 C5.22084338,10.4093366 5.24466129,10.3569778 5.26294368,10.2526158 C5.49538406,8.92643099 6.17462592,7.8902761 7.3008724,7.15192115 C7.49522445,7.024503 7.7045579,6.92003941 7.9082035,6.80425089 M19.5012243,10.8473016 L19.5012243,12.4472145 C19.4938605,12.4573206 19.4824848,12.466411 19.4796917,12.4776344 C19.2233318,13.5077459 18.5931477,13.9993901 17.5278426,13.9994409 C13.6884375,13.9994409 9.84903238,13.9994409 6.00962728,13.9994409 C4.6262084,13.9994409 3.24273873,14.0011168 1.85931985,13.9987807 C1.06637163,13.9974095 0.415975333,13.5744259 0.135391312,12.8787807 C0.0791729391,12.7393774 0.0445379523,12.59129 0,12.4472145 C0,11.9139271 0,11.380589 0,10.8473016 C0.1302113,10.5106008 0.381289562,10.3796785 0.732971796,10.4050199 C0.888880022,10.4162433 1.04621021,10.4068989 1.2218228,10.4068989 C1.2218228,10.3097483 1.2218228,10.235146 1.2218228,10.1605436 C1.2218228,7.4059957 1.22106103,4.65144777 1.22222907,1.89695062 C1.22268613,0.771770612 1.98785526,0.000913624222 3.10633173,0.000659702031 C7.53580122,-0.000457555609 11.9652707,-0.000305202294 16.3947402,0.00228480405 C16.5584184,0.00238637293 16.726261,0.0152856202 16.8850639,0.0525106134 C17.737176,0.252195024 18.278335,0.962821668 18.2787921,1.87805881 C18.2803156,4.63890401 18.2793507,7.39979999 18.2793507,10.1606452 L18.2793507,10.4068989 C18.4551156,10.4068989 18.6124966,10.416548 18.768354,10.4049691 C19.1207473,10.3787136 19.3703528,10.5117688 19.5012243,10.8473016" id="Fill-1"></path>
                    </g>
                </g>
            </g>
        </g>
    </g>
</svg>