<?xml version="1.0" encoding="UTF-8"?>
<svg width="24px" height="24px" viewBox="0 0 24 24" version="1.1" xmlns="http://www.w3.org/2000/svg" xmlns:xlink="http://www.w3.org/1999/xlink">
    <title>1FD8130C-BCD5-49E2-869D-6334A3D16A3E@0.5x</title>
    <g id="Mentor" stroke="none" stroke-width="1" fill="none" fill-rule="evenodd">
        <g id="My-Profile-Screen" transform="translate(-317.500000, -764.500000)">
            <g id="Navigations-2" transform="translate(0.000000, 754.000000)">
                <g id="ic-appointments" transform="translate(317.500000, 10.500000)">
                    <rect id="Rectangle" fill="#000000" fill-rule="nonzero" opacity="0" x="0" y="0" width="24" height="24"></rect>
                    <g id="Group-3" transform="translate(3.750016, 3.749993)" fill="#FF8143" stroke="#FF8143" stroke-width="0.1">
                        <path d="M10.6661781,6.4433012 C10.6689564,5.11398213 9.58060191,4.02316673 8.25120216,4.02284392 C6.92805546,4.02252125 5.84268626,5.10220218 5.83510314,6.42615572 C5.82759824,7.7551924 6.91220093,8.84951758 8.2420848,8.85469944 C9.57104079,8.85980487 10.6633892,7.77318506 10.6661781,6.4433012 M8.39482074,15.529597 C8.60532685,15.5107975 8.96029873,15.4967181 9.30962269,15.4448379 C10.8069674,15.2225115 12.1063525,14.5838929 13.2183476,13.5583513 C13.2781349,13.5031631 13.2972572,13.4584638 13.2672828,13.3805628 C12.5216361,11.4431239 11.1299882,10.259723 9.09040264,9.89708604 C7.68749922,9.64760927 6.38161903,9.97284888 5.20854568,10.7866741 C4.27171683,11.4366288 3.61881707,12.3091521 3.23826817,13.3835078 C3.22241365,13.4282878 3.24161658,13.5123611 3.27594788,13.5442315 C4.67860925,14.845311 6.33982441,15.5003085 8.39482074,15.529597 M14.0265249,12.6529895 C16.1933501,9.86489289 16.101531,5.59389411 13.1681618,2.87893812 C10.3274185,0.24962883 5.9103403,0.325916116 3.1328134,3.07544546 C0.320350077,5.85962883 0.41640509,10.0359442 2.47591976,12.6502865 C3.2446826,10.9626472 4.50416915,9.80692101 6.25401634,9.17624986 C4.50094176,7.83567528 4.48799189,5.45923152 5.83276206,4.07202125 C7.11653467,2.74774497 9.2451557,2.71591489 10.6140909,4.02240022 C11.9595469,5.30641489 12.0917083,7.78339167 10.2520188,9.17826697 C11.9956533,9.80696135 13.2524772,10.9592584 14.0265249,12.6529895 M8.73385741,16.4909944 L7.76745766,16.4909944 C7.72062025,16.4816349 7.67402489,16.4705005 7.62686475,16.4631582 C7.17712881,16.3934467 6.71976817,16.3558073 6.27870582,16.2501508 C2.04647599,15.2362682 -0.680058235,10.9834235 0.148128806,6.70189533 C0.492369637,4.9221545 1.32366304,3.40484032 2.66230118,2.18569607 C4.57218626,0.446378218 6.82901511,-0.247267258 9.3863134,0.0776092698 C11.0152144,0.28456526 12.4503916,0.95315817 13.6809931,2.04014105 C15.1304112,3.32040389 16.0370237,4.91348091 16.3705335,6.82376942 C16.4246325,7.13367895 16.4556154,7.44762272 16.497289,7.75971074 L16.497289,8.72627186 C16.4874051,8.78311416 16.4754234,8.83963372 16.4679198,8.89675841 C16.4287474,9.19432321 16.4056716,9.49487333 16.3497572,9.78917039 C16.0375078,11.4320298 15.2898843,12.8513929 14.1146325,14.0380616 C12.882377,15.2823391 11.4016936,16.0657865 9.67193687,16.3639968 C9.36118015,16.4175714 9.04667159,16.4492401 8.73385741,16.4909944" id="Fill-1"></path>
                    </g>
                </g>
            </g>
        </g>
    </g>
</svg>