<?xml version="1.0" encoding="UTF-8"?>
<svg width="24px" height="24px" viewBox="0 0 24 24" version="1.1" xmlns="http://www.w3.org/2000/svg" xmlns:xlink="http://www.w3.org/1999/xlink">
    <title>89EFEBA8-8E6C-4F54-8C40-5DF098EADC1D@0.5x</title>
    <g id="Mentor" stroke="none" stroke-width="1" fill="none" fill-rule="evenodd">
        <g id="My-Profile-Screen" transform="translate(-246.500000, -764.500000)">
            <g id="Navigations-2" transform="translate(0.000000, 754.000000)">
                <g id="ic-wallet-copy" transform="translate(246.500000, 10.500000)">
                    <rect id="Rectangle" fill="#000000" fill-rule="nonzero" opacity="0" x="0" y="0" width="24" height="24"></rect>
                    <g id="Group-6" transform="translate(3.999979, 4.999977)" fill="#1B2339">
                        <path d="M15.9280788,5.53664399 C15.8548052,5.53664399 15.7904685,5.53664399 15.7261318,5.53664399 C14.9227708,5.53664399 14.1194512,5.53569239 13.3160902,5.53705773 C12.9530324,5.53767834 12.5891471,5.52836917 12.2270824,5.54922172 C11.5897143,5.58596192 11.0312466,6.10549656 10.9253703,6.73661716 C10.7683142,7.6728304 11.4445325,8.45264953 12.4277054,8.45740755 C13.5446821,8.46282756 14.6616588,8.45881427 15.7786355,8.45827641 C15.826464,8.45823504 15.8742511,8.45194617 15.9280788,8.44818113 L15.9280788,5.53664399 Z M15.9262169,4.55616045 C15.9312646,4.50746313 15.9364777,4.48056996 15.9364777,4.45371817 C15.9370156,3.79851784 15.9394567,3.14331752 15.9349469,2.48819994 C15.934078,2.35729227 15.922245,2.22228857 15.8883596,2.09642854 C15.6982456,1.39008982 15.1469771,0.982885883 14.3851557,0.982720387 C10.4320668,0.981810157 6.47893658,0.981561912 2.52584773,0.982844509 C1.60275008,0.983175502 0.979531934,1.59795333 0.978166588,2.52402992 C0.973905055,5.50813723 0.973284444,8.49224455 0.982965984,11.4763105 C0.983752092,11.7110672 1.03273903,11.965311 1.13195414,12.1764017 C1.40816766,12.764245 1.90643601,13.0142687 2.54740364,13.0139794 C6.48398422,13.0121586 10.4205648,13.0130689 14.357104,13.0128206 C14.4286398,13.0128206 14.5004239,13.0121586 14.5716701,13.0066559 C15.3100738,12.949932 15.8864978,12.3898921 15.9210452,11.6501231 C15.9500071,11.0293047 15.9337057,10.4063761 15.9372225,9.78439922 C15.9378431,9.67566807 15.9373052,9.56689555 15.9373052,9.43917369 C15.8559223,9.43917369 15.7914615,9.43917369 15.7270006,9.43917369 C14.6148233,9.43913231 13.5026046,9.44691065 12.3905514,9.43727048 C10.6268975,9.42204481 9.45890649,7.71317015 10.0972262,6.09358082 C10.465704,5.15869154 11.36075,4.56095985 12.412066,4.55711206 C13.5131964,4.5530574 14.6143268,4.55616045 15.7154986,4.55616045 C15.7807042,4.55616045 15.8459098,4.55616045 15.9262169,4.55616045 L15.9262169,4.55616045 Z M0,11.8207499 L0,2.17458423 C0.00885405845,2.1548074 0.0233763693,2.13569257 0.025651945,2.11517101 C0.143361273,1.06778555 1.07233405,-0.00194193573 2.52137933,0 C6.47963994,0.00533990673 10.4379006,-0.00090758311 14.3961198,0.0075741084 C14.6831733,0.00815334586 14.9832184,0.0507686739 15.2546739,0.141419338 C16.2785175,0.483417689 16.9115826,1.39733029 16.9130721,2.49713675 C16.9156303,4.34689023 16.9137755,6.19664371 16.9137341,8.04639719 C16.9137341,9.20801656 16.9188231,10.3696359 16.9123274,11.5312139 C16.9049628,12.84509 15.9466558,13.8948752 14.6429991,13.9731136 C13.8858943,14.0185424 13.1243212,13.9926422 12.364734,13.9929318 C9.08910474,13.9943385 5.81351685,13.9963658 2.53788759,13.9918974 C1.46915309,13.9904494 0.680769522,13.5122888 0.218496648,12.5416523 C0.111710083,12.3174874 0.0710807122,12.0618782 0,11.8207499 L0,11.8207499 Z" id="Fill-1" stroke="#1B2339" stroke-width="0.2"></path>
                        <path d="M12.6741502,7.4872965 C12.5696806,7.4872965 12.46488,7.49271651 12.3608241,7.48626215 C12.0783218,7.46863678 11.8769126,7.26635878 11.8733544,7.00292986 C11.8697963,6.74156964 12.0704193,6.52563818 12.3503565,6.5110745 C12.575142,6.499407 12.8015825,6.49903463 13.0262852,6.51177786 C13.2994371,6.52729315 13.4939368,6.73548764 13.4974122,6.99237946 C13.500929,7.25378106 13.3001404,7.46495449 13.0204101,7.48526917 C12.9055556,7.49362674 12.7896254,7.48663452 12.6741502,7.48663452 C12.6741502,7.48688276 12.6741502,7.48708963 12.6741502,7.4872965" id="Fill-4"></path>
                    </g>
                </g>
            </g>
        </g>
    </g>
</svg>