<?xml version="1.0" encoding="UTF-8"?>
<svg width="24px" height="24px" viewBox="0 0 24 24" version="1.1" xmlns="http://www.w3.org/2000/svg" xmlns:xlink="http://www.w3.org/1999/xlink">
    <title>3EA54408-FA72-424D-97B3-09FF0262FE7C@0.5x</title>
    <g id="Mentor" stroke="none" stroke-width="1" fill="none" fill-rule="evenodd">
        <g id="My-Profile-Screen" transform="translate(-33.500000, -764.000000)">
            <g id="Navigations-2" transform="translate(0.000000, 754.000000)">
                <g id="ic-requests" transform="translate(33.500000, 10.000000)">
                    <rect id="Rectangle" fill="#000000" fill-rule="nonzero" opacity="0" x="0" y="0" width="24" height="24"></rect>
                    <g id="Group-9" transform="translate(4.000000, 3.999989)" fill="#1B2339">
                        <path d="M5.79941188,15.9983679 C4.84925091,15.9983679 3.89903858,16.0031441 2.94892897,15.9964677 C2.43746185,15.9928727 1.93914219,15.9033056 1.47394798,15.6814421 C0.690184587,15.3076639 0.234696901,14.6693443 0.0912046707,13.8318098 C-0.169074007,12.3129697 0.115034447,10.9077833 1.10751382,9.69611106 C1.80371306,8.84614814 2.74437293,8.41351444 3.81774001,8.27484979 C4.28673466,8.21424821 4.76466548,8.20998555 5.23884721,8.20474711 C6.22100377,8.19401344 7.20336575,8.19509194 8.18557367,8.20002224 C9.23742205,8.20526068 10.1923592,8.51422606 11.042014,9.1380629 C11.2596148,9.29783538 11.3547285,9.51363866 11.3001871,9.7761257 C11.2473404,10.0304469 11.0825349,10.2149736 10.8240537,10.241474 C10.6654111,10.2577542 10.4649123,10.2248342 10.3383166,10.1357807 C9.62362877,9.63304433 8.83806786,9.41580305 7.96740796,9.42787201 C6.82491398,9.44374141 5.68195779,9.43403488 4.53925839,9.42412293 C2.65727099,9.40773996 1.16826947,10.9110188 1.22168104,12.7892058 C1.22892242,13.0446055 1.24494589,13.3027785 1.29049979,13.5535561 C1.41534933,14.2399975 1.83421928,14.6316481 2.53180517,14.72594 C2.74724894,14.7550082 2.96654451,14.7669745 3.18409393,14.767334 C5.04589792,14.7704668 6.90775327,14.7684125 8.76955726,14.7696451 C9.2360354,14.7699532 9.53575647,15.1296596 9.42328403,15.5475537 C9.34850784,15.8254993 9.10805307,15.998676 8.78475901,15.9991383 C7.78966042,16.000679 6.79451047,15.9997032 5.79941188,15.9997032 L5.79941188,15.9983679 Z" id="Fill-1"></path>
                        <path d="M6.37222013,5.73845193 C7.63134648,5.73598229 8.63877082,4.7278903 8.63121267,3.47795691 C8.62356906,2.22545565 7.61141986,1.22604305 6.35527223,1.23070024 C5.13178783,1.23528736 4.11229454,2.25549966 4.1113694,3.47621076 C4.11039432,4.72824981 5.12244081,5.74091258 6.37222013,5.73845193 M9.86235793,3.48427385 C9.87894633,5.38860167 8.32826472,6.9471923 6.39445783,6.96984085 C4.48766487,6.99218127 2.89492165,5.43230671 2.8790009,3.52710582 C2.86302878,1.60999005 4.41417261,0.0168873294 6.31300519,0.000144857265 C8.2808106,-0.0171625449 9.84525596,1.51852274 9.86235793,3.48427385" id="Fill-4"></path>
                        <path d="M13.5531435,14.3530348 C13.5531435,14.6989774 13.555095,15.0116405 13.5526299,15.3243036 C13.5495485,15.7216035 13.3018523,15.9954919 12.9466654,15.9992803 C12.5844425,16.0030928 12.3259613,15.7234524 12.3212878,15.3187571 C12.3177955,15.0179061 12.3183605,14.7170038 12.3162548,14.4161016 C12.3161521,14.4043921 12.3072673,14.3926826 12.291552,14.3544728 C11.9649711,14.3544728 11.6269375,14.3607898 11.2892634,14.3527267 C10.9208263,14.3439446 10.6674808,14.0632771 10.686483,13.7009001 C10.7038931,13.3684645 10.9648908,13.1332482 11.3341496,13.1260581 C11.6418311,13.1201007 11.9496666,13.1227713 12.2573994,13.1209224 C12.2692116,13.120871 12.2809724,13.1137837 12.3207743,13.1008417 C12.3207743,12.9593011 12.3182064,12.8082079 12.3213906,12.6572689 C12.3262181,12.4273424 12.3125057,12.1939749 12.3476855,11.9684138 C12.3960127,11.658678 12.6737015,11.4716862 12.9948385,11.4940266 C13.2919917,11.5147236 13.5374795,11.7535863 13.5475455,12.0578268 C13.5588955,12.4021773 13.5501648,12.7472469 13.5501648,13.1249283 C13.7947281,13.1249283 14.0222922,13.1225145 14.2497536,13.12575 C14.4031578,13.1279584 14.5594379,13.121436 14.7091958,13.1480904 C15.0147716,13.2025291 15.2209197,13.484686 15.198117,13.7892346 C15.1754171,14.0931157 14.9292103,14.3416335 14.6187042,14.3507238 C14.2738915,14.3608411 13.9285652,14.3530348 13.5531435,14.3530348" id="Fill-7"></path>
                    </g>
                </g>
            </g>
        </g>
    </g>
</svg>